# xmcd
#
# Track frame offsets: 
#        150
#        25358
#        49518
#        69100
#        87952
#        102730
#        109929
#        130224
#        153937
#        166741
#        187876
#
# Disc length: 2664 seconds
#
# Revision: 2
# Processed by: cddbd v1.5.2PL0 Copyright (c) Steve Scherf et al.
# Submitted via: ExactAudioCopy v0.95b4
#
DISCID=850a660b
DTITLE=Myrkgrav - Trollskau, Skromt Og Kolabrenning
DYEAR=2006
DGENRE=Viking Metal
TTITLE0=Gygra Og St. Olav
TTITLE1=Fela Etter'n Far
TTITLE2=Om A Danse Bekhette
TTITLE3=Oppbrennerbonn
TTITLE4=Olav Tryggvason
TTITLE5=Mellomspell (Instrumental)
TTITLE6=Tre Skygger Tel Kolabrennern Kom
TTITLE7=Tjernet
TTITLE8=De To Spellmenn
TTITLE9=Finnkjerringa
TTITLE10=Endetoner (Instrumental)
EXTD=YEAR: 2006
EXTT0=
EXTT1=
EXTT2=
EXTT3=
EXTT4=
EXTT5=
EXTT6=
EXTT7=
EXTT8=
EXTT9=
EXTT10=
PLAYORDER=
